<svg xmlns="http://www.w3.org/2000/svg" xmlns:xlink="http://www.w3.org/1999/xlink" version="1.1" width="161px" viewBox="-0.5 -0.5 161 161"  style="cursor:pointer;max-width:100%;max-height:161px;"><defs/><g><rect x="0" y="0" width="80" height="80" fill="none" stroke="none" pointer-events="all"/><path d="M 0 0 M 80 0 L 80 80 L 0 80" fill="none" stroke="#00ffff" stroke-opacity="0.3" stroke-linecap="square" stroke-width="2" stroke-miterlimit="10" stroke-dasharray="1 6" pointer-events="all"/><ellipse cx="2.5" cy="2.5" rx="2.5" ry="2.5" fill-opacity="0.3" fill="#00ffff" stroke="none" pointer-events="all"/><ellipse cx="2.5" cy="22.5" rx="2.5" ry="2.5" fill-opacity="0.3" fill="#00ffff" stroke="none" pointer-events="all"/><ellipse cx="2.5" cy="42.5" rx="2.5" ry="2.5" fill-opacity="0.3" fill="#00ffff" stroke="none" pointer-events="all"/><ellipse cx="2.5" cy="62.5" rx="2.5" ry="2.5" fill-opacity="0.3" fill="#00ffff" stroke="none" pointer-events="all"/><ellipse cx="22.5" cy="2.5" rx="2.5" ry="2.5" fill-opacity="0.3" fill="#00ffff" stroke="none" pointer-events="all"/><ellipse cx="22.5" cy="22.5" rx="2.5" ry="2.5" fill="#00ffff" stroke="none" pointer-events="all"/><ellipse cx="22.5" cy="42.5" rx="2.5" ry="2.5" fill-opacity="0.3" fill="#00ffff" stroke="none" pointer-events="all"/><ellipse cx="22.5" cy="62.5" rx="2.5" ry="2.5" fill-opacity="0.3" fill="#00ffff" stroke="none" pointer-events="all"/><ellipse cx="42.5" cy="2.5" rx="2.5" ry="2.5" fill-opacity="0.3" fill="#00ffff" stroke="none" pointer-events="all"/><ellipse cx="42.5" cy="22.5" rx="2.5" ry="2.5" fill-opacity="0.3" fill="#00ffff" stroke="none" pointer-events="all"/><ellipse cx="42.5" cy="42.5" rx="2.5" ry="2.5" fill-opacity="0.3" fill="#00ffff" stroke="none" pointer-events="all"/><ellipse cx="42.5" cy="62.5" rx="2.5" ry="2.5" fill="#00ffff" stroke="none" pointer-events="all"/><ellipse cx="62.5" cy="2.5" rx="2.5" ry="2.5" fill-opacity="0.3" fill="#00ffff" stroke="none" pointer-events="all"/><ellipse cx="62.5" cy="22.5" rx="2.5" ry="2.5" fill="#00ffff" stroke="none" pointer-events="all"/><ellipse cx="62.5" cy="42.5" rx="2.5" ry="2.5" fill-opacity="0.3" fill="#00ffff" stroke="none" pointer-events="all"/><ellipse cx="62.5" cy="62.5" rx="2.5" ry="2.5" fill-opacity="0.3" fill="#00ffff" stroke="none" pointer-events="all"/><rect x="80" y="0" width="80" height="80" fill="none" stroke="none" pointer-events="all"/><path d="M 80 0 M 160 0 L 160 80 L 80 80" fill="none" stroke="#00ffff" stroke-opacity="0.3" stroke-linecap="square" stroke-width="2" stroke-miterlimit="10" stroke-dasharray="1 6"  pointer-events="all"/><ellipse cx="82.5" cy="2.5" rx="2.5" ry="2.5" fill="#00ffff" stroke="none" pointer-events="all"/><ellipse cx="82.5" cy="22.5" rx="2.5" ry="2.5" fill-opacity="0.3" fill="#00ffff" stroke="none" pointer-events="all"/><ellipse cx="82.5" cy="42.5" rx="2.5" ry="2.5" fill-opacity="0.3" fill="#00ffff" stroke="none" pointer-events="all"/><ellipse cx="82.5" cy="62.5" rx="2.5" ry="2.5" fill-opacity="0.3" fill="#00ffff" stroke="none" pointer-events="all"/><ellipse cx="102.5" cy="2.5" rx="2.5" ry="2.5" fill-opacity="0.3" fill="#00ffff" stroke="none" pointer-events="all"/><ellipse cx="102.5" cy="22.5" rx="2.5" ry="2.5" fill-opacity="0.3" fill="#00ffff" stroke="none" pointer-events="all"/><ellipse cx="102.5" cy="42.5" rx="2.5" ry="2.5" fill="#00ffff" stroke="none" pointer-events="all"/><ellipse cx="102.5" cy="62.5" rx="2.5" ry="2.5" fill-opacity="0.3" fill="#00ffff" stroke="none" pointer-events="all"/><ellipse cx="122.5" cy="2.5" rx="2.5" ry="2.5" fill-opacity="0.3" fill="#00ffff" stroke="none" pointer-events="all"/><ellipse cx="122.5" cy="22.5" rx="2.5" ry="2.5" fill-opacity="0.3" fill="#00ffff" stroke="none" pointer-events="all"/><ellipse cx="122.5" cy="42.5" rx="2.5" ry="2.5" fill-opacity="0.3" fill="#00ffff" stroke="none" pointer-events="all"/><ellipse cx="122.5" cy="62.5" rx="2.5" ry="2.5" fill-opacity="0.3" fill="#00ffff" stroke="none" pointer-events="all"/><ellipse cx="142.5" cy="2.5" rx="2.5" ry="2.5" fill-opacity="0.3" fill="#00ffff" stroke="none" pointer-events="all"/><ellipse cx="142.5" cy="22.5" rx="2.5" ry="2.5" fill-opacity="0.3" fill="#00ffff" stroke="none" pointer-events="all"/><ellipse cx="142.5" cy="42.5" rx="2.5" ry="2.5" fill-opacity="0.3" fill="#00ffff" stroke="none" pointer-events="all"/><ellipse cx="142.5" cy="62.5" rx="2.5" ry="2.5" fill="#00ffff" stroke="none" pointer-events="all"/><rect x="80" y="80" width="80" height="80" fill="none" stroke="none" pointer-events="all"/><path d="M 80 80 M 160 80 L 160 160 L 80 160" fill="none" stroke="#00ffff" stroke-opacity="0.3" stroke-linecap="square" stroke-width="2" stroke-miterlimit="10" stroke-dasharray="1 6" /><ellipse cx="82.5" cy="82.5" rx="2.5" ry="2.5" fill-opacity="0.3" fill="#00ffff" stroke="none" pointer-events="all"/><ellipse cx="82.5" cy="102.5" rx="2.5" ry="2.5" fill-opacity="0.3" fill="#00ffff" stroke="none" pointer-events="all"/><ellipse cx="82.5" cy="122.5" rx="2.5" ry="2.5" fill-opacity="0.3" fill="#00ffff" stroke="none" pointer-events="all"/><ellipse cx="82.5" cy="142.5" rx="2.5" ry="2.5" fill-opacity="0.3" fill="#00ffff" stroke="none" pointer-events="all"/><ellipse cx="102.5" cy="82.5" rx="2.5" ry="2.5" fill-opacity="0.3" fill="#00ffff" stroke="none" pointer-events="all"/><ellipse cx="102.5" cy="102.5" rx="2.5" ry="2.5" fill-opacity="0.9" fill="#00ffff" stroke="none" pointer-events="all"/><ellipse cx="102.5" cy="122.5" rx="2.5" ry="2.5" fill-opacity="0.3" fill="#00ffff" stroke="none" pointer-events="all"/><ellipse cx="102.5" cy="142.5" rx="2.5" ry="2.5" fill-opacity="0.3" fill="#00ffff" stroke="none" pointer-events="all"/><ellipse cx="122.5" cy="82.5" rx="2.5" ry="2.5" fill-opacity="0.3" fill="#00ffff" stroke="none" pointer-events="all"/><ellipse cx="122.5" cy="102.5" rx="2.5" ry="2.5" fill-opacity="0.3" fill="#00ffff" stroke="none" pointer-events="all"/><ellipse cx="122.5" cy="122.5" rx="2.5" ry="2.5" fill="#00ffff" stroke="none" pointer-events="all"/><ellipse cx="122.5" cy="142.5" rx="2.5" ry="2.5" fill-opacity="0.3" fill="#00ffff" stroke="none" pointer-events="all"/><ellipse cx="142.5" cy="82.5" rx="2.5" ry="2.5" fill-opacity="0.3" fill="#00ffff" stroke="none" pointer-events="all"/><ellipse cx="142.5" cy="102.5" rx="2.5" ry="2.5" fill-opacity="0.3" fill="#00ffff" stroke="none" pointer-events="all"/><ellipse cx="142.5" cy="122.5" rx="2.5" ry="2.5" fill-opacity="0.3" fill="#00ffff" stroke="none" pointer-events="all"/><ellipse cx="142.5" cy="142.5" rx="2.5" ry="2.5" fill="#00ffff" stroke="none" pointer-events="all"/><rect x="0" y="80" width="80" height="80" fill="none" stroke="none" pointer-events="all"/><path d="M 0 80 M 80 80 L 80 160 L 0 160" fill="none" stroke="#00ffff" stroke-opacity="0.3" stroke-linecap="square" stroke-width="2" stroke-miterlimit="10" stroke-dasharray="1 6" /><ellipse cx="2.5" cy="82.5" rx="2.5" ry="2.5" fill-opacity="0.3" fill="#00ffff" stroke="none" pointer-events="all"/><ellipse cx="2.5" cy="102.5" rx="2.5" ry="2.5" fill-opacity="0.3" fill="#00ffff" stroke="none" pointer-events="all"/><ellipse cx="2.5" cy="122.5" rx="2.5" ry="2.5" fill-opacity="0.3" fill="#00ffff" stroke="none" pointer-events="all"/><ellipse cx="2.5" cy="142.5" rx="2.5" ry="2.5" fill-opacity="0.3" fill="#00ffff" stroke="none" pointer-events="all"/><ellipse cx="22.5" cy="82.5" rx="2.5" ry="2.5" fill-opacity="0.3" fill="#00ffff" stroke="none" pointer-events="all"/><ellipse cx="22.5" cy="102.5" rx="2.5" ry="2.5" fill-opacity="0.3" fill="#00ffff" stroke="none" pointer-events="all"/><ellipse cx="22.5" cy="122.5" rx="2.5" ry="2.5" fill="#00ffff" stroke="none" pointer-events="all"/><ellipse cx="22.5" cy="142.5" rx="2.5" ry="2.5" fill-opacity="0.3" fill="#00ffff" stroke="none" pointer-events="all"/><ellipse cx="42.5" cy="82.5" rx="2.5" ry="2.5" fill="#00ffff" stroke="none" pointer-events="all"/><ellipse cx="42.5" cy="102.5" rx="2.5" ry="2.5" fill-opacity="0.3" fill="#00ffff" stroke="none" pointer-events="all"/><ellipse cx="42.5" cy="122.5" rx="2.5" ry="2.5" fill-opacity="0.3" fill="#00ffff" stroke="none" pointer-events="all"/><ellipse cx="42.5" cy="142.5" rx="2.5" ry="2.5" fill-opacity="0.3" fill="#00ffff" stroke="none" pointer-events="all"/><ellipse cx="62.5" cy="82.5" rx="2.5" ry="2.5" fill-opacity="0.3" fill="#00ffff" stroke="none" pointer-events="all"/><ellipse cx="62.5" cy="102.5" rx="2.5" ry="2.5" fill="#00ffff" stroke="none" pointer-events="all"/><ellipse cx="62.5" cy="122.5" rx="2.5" ry="2.5" fill-opacity="0.3" fill="#00ffff" stroke="none" pointer-events="all"/><ellipse cx="62.5" cy="142.5" rx="2.5" ry="2.5" fill-opacity="0.3" fill="#00ffff" stroke="none" pointer-events="all"/></g></svg>