<svg xmlns="http://www.w3.org/2000/svg" xmlns:xlink="http://www.w3.org/1999/xlink" version="1.1" width="524px" viewBox="-0.5 -0.5 524 171" style="max-width:100%;max-height:171px;"><defs/><g>
<rect class="shadow" x="31" y="31" width="459" height="70" rx="19.6" ry="19.6" fill="#00ffff" stroke="#00ffff" stroke-width="1" pointer-events="all">
    <animate attributeName="width" attributeType="XML" values="459; 80; 360; 50; 100; 459; 459" dur="10s" repeatCount="indefinite"></animate>
</rect>
<rect x="22" y="21" width="478" height="89" rx="29.37" ry="29.37" fill="none" stroke="none" stroke-width="18" pointer-events="all"/><rect x="442" y="32" width="10" height="68" fill="#000000" stroke="none" pointer-events="all"/><path d="M 504 1 C 504 10.39 511.61 18 521 18 L 521 114 C 511.61 114 504 121.61 504 131 L 18 131 C 18 121.61 10.39 114 1 114 L 1 18 C 10.39 18 18 10.39 18 1 Z M 35 18 C 31.59 25.55 25.55 31.59 18 35 L 18 97 C 25.55 100.41 31.59 106.45 35 114 L 487 114 C 490.41 106.45 496.45 100.41 504 97 L 504 35 C 496.45 31.59 490.41 25.55 487 18 Z" fill-opacity="0.3" fill="#000000" stroke="#00ffff" stroke-opacity="0.3" stroke-width="3" stroke-miterlimit="10" pointer-events="all"/><rect x="66" y="32" width="10" height="68" fill="#000000" stroke="none" pointer-events="all"/><rect x="113" y="32" width="10" height="68" fill="#000000" stroke="none" pointer-events="all"/><rect x="31" y="31" width="460" height="70" rx="18.9" ry="18.9" fill="none" stroke="#00ffff" stroke-opacity="0.3" stroke-width="3" pointer-events="all"/><path d="M 325 169 L 521 49 L 521 64.29 L 349.98 169 Z" fill-opacity="0.3" fill="#000000" stroke="#00ffff" stroke-opacity="0.3" stroke-width="3" stroke-miterlimit="10" pointer-events="all"/><path d="M 414 132 L 414 66 L 522 132 Z" fill="#000000" stroke="#000000" stroke-width="2" stroke-miterlimit="10" transform="translate(468,0)scale(-1,1)translate(-468,0)" pointer-events="all"/><rect x="160" y="32" width="10" height="68" fill="#000000" stroke="none" pointer-events="all"/><rect x="506" y="21" width="13" height="40" fill="#000000" stroke="#000000" stroke-width="2" pointer-events="all"/><rect x="207" y="32" width="10" height="68" fill="#000000" stroke="none" pointer-events="all"/><rect x="254" y="32" width="10" height="68" fill="#000000" stroke="none" pointer-events="all"/><rect x="300" y="32" width="10" height="68" fill="#000000" stroke="none" pointer-events="all"/><rect x="348" y="32" width="10" height="68" fill="#000000" stroke="none" pointer-events="all"/><rect x="397" y="32" width="10" height="68" fill="#000000" stroke="none" pointer-events="all"/></g></svg>